<svg width="43" height="48" viewBox="0 0 43 48" fill="none" xmlns="http://www.w3.org/2000/svg">
<g filter="url(#filter0_d_232_50)">
<path fill-rule="evenodd" clip-rule="evenodd" d="M30.6667 13.9893C30.6667 14.8573 30.108 15.59 29.3333 15.8667V18.656C29.3333 23.0673 25.7447 26.656 21.3333 26.656C16.922 26.656 13.3333 23.0673 13.3333 18.656V15.866C12.5587 15.59 12 14.8573 12 13.9893C12 12.8867 12.8973 11.9893 14 11.9893C15.1027 11.9893 16 12.8867 16 13.9893C16 14.8573 15.4413 15.59 14.6667 15.8667V18.656C14.6667 22.332 17.6573 25.3227 21.3333 25.3227C25.0093 25.3227 28 22.332 28 18.656V15.866C27.2253 15.59 26.6667 14.8573 26.6667 13.9893C26.6667 12.8867 27.564 11.9893 28.6667 11.9893C29.7693 11.9893 30.6667 12.8867 30.6667 13.9893ZM33.5273 5.126L36.3713 7.98933H6.276L9.138 5.12733C9.26333 5.00267 9.33333 4.83267 9.33333 4.656C9.33333 4.47867 9.26267 4.30867 9.13733 4.184L6.27867 1.33333H36.388L33.5293 4.184C33.2687 4.44333 33.268 4.86467 33.5273 5.126ZM35.3333 38.6667H7.33333C6.23067 38.6667 5.33333 37.7647 5.33333 36.656V9.32267H37.3333V36.656C37.3333 37.7647 36.436 38.6667 35.3333 38.6667ZM38 5.98933C38.368 5.98933 38.6667 5.69067 38.6667 5.32267V0.666667C38.6667 0.396667 38.5047 0.154 38.2553 0.0506667C38.174 0.0166667 38.088 0.006 38.0033 0.006C37.9927 0.00533333 37.9833 0 37.9727 0H4.66667C4.65733 0 4.65 0.00466667 4.64067 0.00466667C4.56333 0.008 4.486 0.02 4.41133 0.0506667C4.41067 0.0506667 4.41 0.0513333 4.40933 0.052C4.40467 0.054 4.40133 0.0573333 4.39667 0.0593333C4.32867 0.0893333 4.26933 0.131333 4.216 0.180667C4.19933 0.196667 4.186 0.214 4.17067 0.230667C4.13333 0.274 4.102 0.32 4.07667 0.370667C4.06667 0.392 4.05533 0.411333 4.04667 0.433333C4.01933 0.507333 4 0.584667 4 0.666667V5.32267C4 5.69067 4.29867 5.98933 4.66667 5.98933C5.03467 5.98933 5.33333 5.69067 5.33333 5.32267V2.27267L7.72333 4.65667L4.19533 8.184C4.13467 8.24533 4.08533 8.31867 4.052 8.39933C4.018 8.48 4 8.56667 4 8.656V36.656C4 38.5 5.49533 40 7.33333 40H35.3333C37.1713 40 38.6667 38.5 38.6667 36.656V8.684C38.6667 8.50733 38.5973 8.33867 38.4727 8.214L38.4447 8.18533L38.4433 8.184L34.942 4.658L37.3333 2.27267V5.32267C37.3333 5.69067 37.632 5.98933 38 5.98933Z" fill="#AAA5A5"/>
</g>
<defs>
<filter id="filter0_d_232_50" x="0" y="0" width="42.6666" height="48" filterUnits="userSpaceOnUse" color-interpolation-filters="sRGB">
<feFlood flood-opacity="0" result="BackgroundImageFix"/>
<feColorMatrix in="SourceAlpha" type="matrix" values="0 0 0 0 0 0 0 0 0 0 0 0 0 0 0 0 0 0 127 0" result="hardAlpha"/>
<feOffset dy="4"/>
<feGaussianBlur stdDeviation="2"/>
<feComposite in2="hardAlpha" operator="out"/>
<feColorMatrix type="matrix" values="0 0 0 0 0 0 0 0 0 0 0 0 0 0 0 0 0 0 0.25 0"/>
<feBlend mode="normal" in2="BackgroundImageFix" result="effect1_dropShadow_232_50"/>
<feBlend mode="normal" in="SourceGraphic" in2="effect1_dropShadow_232_50" result="shape"/>
</filter>
</defs>
</svg>
